    <svg id="Camada_1" data-name="Camada 1" xmlns="http://www.w3.org/2000/svg" viewBox="0 0 77.22 36.96"><defs><style>.cls-1{font-size:4.01px;font-family:MyriadPro-Regular, Myriad Pro;letter-spacing:0.03em;}.cls-2{letter-spacing:0.03em;}.cls-3{letter-spacing:0.03em;}.cls-4{letter-spacing:0.04em;}.cls-5{letter-spacing:0.03em;}</style></defs><title>favicon</title><path d="M84.23,55.88q-18.23,0-36.47,0c-.54,0-.71-.15-.67-.68s0-1.33,0-2c0-.35-.11-.46-.45-.45-.67,0-1.34,0-2,0-.32,0-.46-.11-.43-.42,0-.1,0-.21,0-.31q0-16.17,0-32.34c0-.6.12-.78.76-.78q36.44,0,72.88,0c.52,0,.67.16.64.65,0,.65,0,1.3,0,1.94,0,.35.12.47.46.46.64,0,1.29,0,1.94,0,.41,0,.57.1.56.54,0,1,0,2,0,3V55.09c0,.84.13.79-.77.79ZM46.18,21.76c-.56,0-.69.13-.69.65q0,14.23,0,28.48c0,.46.11.61.63.61h70.39c.54,0,.72-.11.72-.66q0-14.23,0-28.47c0-.49-.14-.61-.64-.61q-17.64,0-35.26,0T46.18,21.76Z" transform="translate(-44.21 -18.93)"/><path d="M106.15,32.68v5.21c0,.13.1.31-.06.39s-.3-.07-.41-.18l-3.35-3.39-4.11-4.15c-.09-.09-.16-.28-.33-.17s-.08.25-.08.39c0,2.18,0,4.36,0,6.55,0,.24.15.61-.14.71a2.13,2.13,0,0,1-1.25,0c-.19,0-.15-.26-.15-.42,0-3.52,0-7,0-10.55,0-.13,0-.31.13-.36s.25.09.34.19L103,33.34l1.3,1.34c.08.09.15.23.28.2s.12-.23.12-.36c0-1.23,0-2.46,0-3.69s0-2.23,0-3.34c0-.45.11-.6.58-.58.92,0,.92,0,.92.92v4.85Z" transform="translate(-44.21 -18.93)"/><path d="M82.23,32.46c0,1.68,0,3.36,0,5,0,.47-.12.64-.61.62-1.09,0-.94.06-.94-.94s0-2.27,0-3.4c0-.42-.14-.56-.56-.56-1.57,0-3.15,0-4.73,0-.42,0-.56.12-.55.55,0,1.28,0,2.55,0,3.82,0,.4-.12.53-.52.53-1.12,0-1.12,0-1.12-1.07q0-4.69,0-9.4c0-.24-.14-.6.21-.68a2.43,2.43,0,0,1,1.31,0c.16.06.09.33.09.51,0,1.25,0,2.51,0,3.76,0,.41.09.57.54.56,1.58,0,3.15,0,4.73,0,.48,0,.58-.17.57-.6,0-1.23,0-2.46,0-3.7,0-.48.14-.67.62-.6a1.55,1.55,0,0,0,.43,0c.4-.05.52.11.51.51,0,1.68,0,3.35,0,5Z" transform="translate(-44.21 -18.93)"/><path d="M61.78,31.1c0-1.21,0-2.43,0-3.64,0-.42.13-.6.55-.54h.43c.43-.06.54.14.54.55,0,2.14,0,4.29,0,6.43a2.9,2.9,0,0,0,.6,2,2.85,2.85,0,0,0,3.39.63,2.57,2.57,0,0,0,1.47-2.44V27.58c0-.39,0-.74.55-.67s.92-.16.9.65c0,2.2,0,4.4,0,6.61,0,2.72-2.18,4.3-4.76,4A4,4,0,0,1,62,35.57a2.85,2.85,0,0,1-.17-1.19c0-1.09,0-2.19,0-3.28Z" transform="translate(-44.21 -18.93)"/><path d="M110.88,32.52c0,1.66,0,3.32,0,5,0,.48-.12.64-.61.63-1.08,0-.91,0-.91-.91,0-3.22,0-6.43,0-9.65,0-.65.3-.65.77-.64s.8-.05.78.63C110.85,29.2,110.88,30.86,110.88,32.52Z" transform="translate(-44.21 -18.93)"/><path d="M89.35,26.63c.49,1.11,1,2.22,1.48,3.35.63,1.49,1.25,3,1.88,4.49.45,1.05.89,2.11,1.34,3.16.14.34.09.5-.31.47a2.44,2.44,0,0,0-.54,0c-.64.1-.88-.23-1-.8s-.5-1.23-.72-1.85a.37.37,0,0,0-.42-.25h-3.7c-.24,0-.38.07-.44.31-.2.76-.7,1.41-.85,2.19-.11.54-.55.38-.89.39-.8,0-.78,0-.49-.7,1-2.43,2-4.87,3-7.3.48-1.16,1-2.31,1.5-3.46Zm-.28,3.57c-.46,1.09-.91,2.19-1.36,3.28-.15.34,0,.41.34.41.75,0,1.5,0,2.24,0,.48,0,.49-.16.34-.53-.46-1.09-.9-2.19-1.36-3.34C89.16,30.13,89.09,30.16,89.07,30.2Z" transform="translate(-44.21 -18.93)"/><text class="cls-1" transform="translate(16.46 26.74)">Online <tspan class="cls-2" x="12.9" y="0">E</tspan><tspan x="14.99" y="0">duc</tspan><tspan class="cls-2" x="21.66" y="0">a</tspan><tspan class="cls-3" x="23.71" y="0">tion </tspan><tspan class="cls-4" x="31.92" y="0">D</tspan><tspan x="34.74" y="0">ep</tspan><tspan class="cls-5" x="39.3" y="0">t</tspan><tspan x="40.75" y="0">.</tspan></text><path d="M53.17,28.82" transform="translate(-44.21 -18.93)"/><path d="M50.44,30.23" transform="translate(-44.21 -18.93)"/><path d="M51.68,32.47c0-1.65,0-3.31,0-5,0-.43.08-.61.56-.59,1,.05,2,0,3,.05a3.7,3.7,0,0,1,2.94,1.64,3.75,3.75,0,0,1-.79,4.65c-.52.37-.44.67-.16,1.09.72,1.12,1.43,2.25,2.14,3.37.18.28.09.4-.23.4h-1a.64.64,0,0,1-.59-.35c-.72-1.18-1.46-2.35-2.18-3.54a.45.45,0,0,0-.45-.21c-.37,0-.73,0-1.09,0s-.68.11-.66.63c0,.91,0,1.82,0,2.73,0,.55-.09.79-.71.76s-.84,0-.81-.73C51.72,35.75,51.68,34.11,51.68,32.47Zm1.31-.2a.41.41,0,0,0,.38.27c.27,0,1.64,0,1.64,0a1.94,1.94,0,0,0,1.87-1.61,2.24,2.24,0,0,0-1-2.22,1.84,1.84,0,0,0-.81-.23,9.49,9.49,0,0,0-2,0A26.22,26.22,0,0,0,53,32.27Z" transform="translate(-44.21 -18.93)"/></svg>   